<?xml version="1.0" standalone="no"?>
<!DOCTYPE svg PUBLIC "-//W3C//DTD SVG 20010904//EN"
 "http://www.w3.org/TR/2001/REC-SVG-20010904/DTD/svg10.dtd">
<svg version="1.0" xmlns="http://www.w3.org/2000/svg"
 width="512.000000pt" height="512.000000pt" viewBox="0 0 512.000000 512.000000"
 preserveAspectRatio="xMidYMid meet">
<metadata>
Created by potrace 1.16, written by Peter Selinger 2001-2019
</metadata>
<g transform="translate(0.000000,512.000000) scale(0.100000,-0.100000)"
fill="#000000" stroke="none">
<path d="M1620 3493 c-228 -247 -344 -533 -357 -878 -9 -238 22 -403 112 -593
62 -131 121 -215 233 -333 180 -190 359 -300 607 -374 67 -20 75 -24 45 -25
-19 -1 -46 -5 -60 -9 -54 -17 79 -26 365 -26 281 0 391 7 380 25 -3 5 -19 12
-37 15 -29 7 -25 9 56 35 281 91 538 279 689 506 100 151 157 293 193 480 22
120 15 497 -11 622 -10 45 -20 81 -22 78 -2 -2 4 -44 13 -92 27 -134 25 -348
-5 -489 -79 -374 -246 -634 -534 -826 -227 -152 -447 -221 -707 -222 -337 -2
-641 123 -880 363 -188 188 -309 423 -356 690 -25 144 -16 392 19 525 55 209
159 408 287 548 29 32 50 57 47 57 -3 0 -38 -35 -77 -77z"/>
<path d="M2915 3489 c231 -119 411 -328 484 -564 31 -97 38 -246 18 -352 -29
-149 -89 -269 -194 -383 -55 -59 -146 -130 -167 -130 -4 0 22 33 57 73 35 40
83 101 106 136 45 66 111 200 111 223 -1 7 -16 -20 -35 -61 -130 -276 -396
-460 -667 -461 -96 0 -208 24 -301 65 -113 50 -117 51 -77 16 19 -16 71 -48
115 -71 44 -23 69 -38 55 -34 -93 26 -262 142 -349 240 -140 157 -221 363
-221 557 1 196 89 396 245 552 79 80 140 124 235 172 82 41 63 42 -54 2 -152
-52 -244 -108 -351 -213 -144 -141 -215 -321 -215 -544 0 -121 24 -224 80
-341 94 -196 225 -327 422 -421 140 -67 219 -84 398 -84 140 0 163 3 243 27
360 111 598 383 639 733 21 170 -31 383 -128 529 -89 136 -257 270 -421 339
-85 35 -101 32 -28 -5z"/>
<path d="M2737 3143 c-4 -3 -7 -137 -7 -297 0 -330 -7 -401 -44 -457 -33 -50
-93 -89 -146 -96 -55 -8 -32 -23 35 -23 67 0 122 27 173 85 59 67 72 119 72
285 0 75 3 191 7 258 l6 122 51 -28 c63 -34 146 -112 146 -138 0 -49 -65 -94
-134 -94 -37 0 -46 -12 -46 -62 l0 -30 58 4 c162 12 263 149 189 259 -34 51
-128 121 -230 173 -90 45 -117 53 -130 39z"/>
<path d="M2281 3069 c-51 -16 -118 -65 -148 -109 -37 -57 -47 -158 -37 -359 8
-150 11 -164 29 -171 11 -4 30 -4 43 1 22 8 22 10 22 219 0 238 5 260 65 306
31 23 50 29 105 32 l67 4 7 -111 c8 -129 25 -192 72 -278 19 -34 34 -66 34
-72 0 -7 -40 -11 -119 -11 -130 0 -145 -6 -139 -57 l3 -28 115 -3 c140 -4 171
1 210 34 45 38 41 76 -22 192 l-52 96 -4 143 c-4 141 -5 143 -31 160 -31 20
-168 28 -220 12z"/>
<path d="M2361 2771 c-16 -28 -13 -87 4 -121 12 -24 95 -82 95 -66 0 2 -9 24
-20 48 -11 25 -23 70 -28 99 -8 58 -32 77 -51 40z"/>
<path d="M3351 2594 c0 -11 3 -14 6 -6 3 7 2 16 -1 19 -3 4 -6 -2 -5 -13z"/>
<path d="M3341 2554 c0 -11 3 -14 6 -6 3 7 2 16 -1 19 -3 4 -6 -2 -5 -13z"/>
</g>
</svg>