<?xml version="1.0" encoding="UTF-8"?>
<svg version="1.1" viewBox="0 0 1724 1358" width="1280" height="1280" xmlns="http://www.w3.org/2000/svg">
<path transform="translate(0)" d="m0 0h1724v1358h-1724z"/>
<path transform="translate(796,545)" d="m0 0h21l10 3 10 6 7 7 6 10 4 11v213h-36l-1-1v-47h-21v47l-1 1h-36l-1-1v-204l2-12 4-10 7-9 7-7 10-5z" fill="#fff"/>
<path transform="translate(930,546)" d="m0 0h35l1 1v210l-4 13-6 10-7 7-10 6-10 3h-22l-14-5-10-8-8-11-4-11-1-6v-18h37l1 14 3 7 5 2 8-1 4-6 1-206z" fill="#fff"/>
<path transform="translate(806,580)" d="m0 0 7 2 3 3 1 2v124h-21v-125l5-5z"/>
</svg>
